<svg width="16" height="16" viewBox="0 0 16 16" fill="none" xmlns="http://www.w3.org/2000/svg">
<path d="M14.4419 6.65812L14.4232 6.61012L12.6106 1.88079C12.5739 1.78748 12.5086 1.70822 12.424 1.65443C12.3394 1.60063 12.2399 1.57508 12.1399 1.58145C12.0398 1.58591 11.9436 1.62199 11.8653 1.68452C11.7869 1.74705 11.7304 1.8328 11.7039 1.92945L10.4799 5.68012H5.52123L4.29523 1.93012C4.269 1.83343 4.2128 1.74753 4.1347 1.68477C4.05661 1.62201 3.96064 1.58561 3.86056 1.58079C3.76052 1.57534 3.66128 1.60134 3.57675 1.65514C3.49223 1.70894 3.42666 1.78785 3.38923 1.88079L1.57457 6.61679L1.5559 6.66345C1.29537 7.34554 1.26333 8.09377 1.46458 8.79564C1.66584 9.49751 2.08951 10.1151 2.6719 10.5555L2.67857 10.5601L2.69456 10.5728L5.45923 12.6421L6.8259 13.6775L7.65723 14.3068C7.75477 14.3804 7.87367 14.4203 7.9959 14.4203C8.11813 14.4203 8.23702 14.3804 8.33457 14.3068L9.1659 13.6775L10.5326 12.6421L13.3139 10.5601L13.3206 10.5548C13.905 10.115 14.3306 9.49692 14.5328 8.79397C14.7351 8.09102 14.7032 7.34133 14.4419 6.65812Z" fill="#737373"/>
</svg>
