<svg xmlns="http://www.w3.org/2000/svg" width="20" height="20" fill="none" viewBox="0 0 20 20"><g clip-path="url(#a)"><path fill="#fff" d="M19.5 3h-1.875a.375.375 0 0 0-.375.375V7.5a1.5 1.5 0 0 1-1.5 1.5H8.275a.766.766 0 0 1-.775-.7.75.75 0 0 1 .75-.8h7.125a.375.375 0 0 0 .375-.375v-3.75A.375.375 0 0 0 15.375 3H8.56a1.487 1.487 0 0 0-1.06.44L3.44 7.5A1.487 1.487 0 0 0 3 8.56V19.5A1.5 1.5 0 0 0 4.5 21h15a1.5 1.5 0 0 0 1.5-1.5v-15A1.5 1.5 0 0 0 19.5 3ZM12 17.25a3 3 0 1 1 0-5.999 3 3 0 0 1 0 5.999Z"/><path fill="#737373" d="M16.25 2.5h-1.563a.313.313 0 0 0-.312.313V6.25a1.25 1.25 0 0 1-1.25 1.25H6.896a.638.638 0 0 1-.646-.584.625.625 0 0 1 .625-.666h5.938a.313.313 0 0 0 .312-.312V2.813a.312.312 0 0 0-.313-.313H7.135a1.239 1.239 0 0 0-.884.366L2.866 6.25a1.239 1.239 0 0 0-.366.884v9.116a1.25 1.25 0 0 0 1.25 1.25h12.5a1.25 1.25 0 0 0 1.25-1.25V3.75a1.25 1.25 0 0 0-1.25-1.25ZM10 14.375a2.5 2.5 0 1 1 0-5 2.5 2.5 0 0 1 0 5Z"/></g><defs><clipPath id="a"><path fill="#fff" d="M0 0h20v20H0z"/></clipPath></defs></svg>