<svg xmlns="http://www.w3.org/2000/svg" width="16" height="16" fill="none" viewBox="0 0 16 16"><path fill="#737373" d="M8.162 2.667c.356.002 1.247.01 2.194.048l.336.015c.952.045 1.904.122 2.377.253.63.177 1.125.693 1.292 1.348.267 1.04.3 3.068.304 3.56V8.107c-.004.491-.037 2.52-.304 3.56a1.874 1.874 0 0 1-1.292 1.347c-.473.131-1.425.209-2.377.253l-.336.016c-.947.037-1.838.046-2.194.048h-.326c-.754-.004-3.904-.038-4.907-.317a1.875 1.875 0 0 1-1.292-1.348c-.267-1.04-.3-3.068-.304-3.56v-.216c.004-.492.037-2.52.304-3.56A1.872 1.872 0 0 1 2.93 2.984c1.002-.28 4.153-.313 4.906-.317h.326Zm-1.496 3v4.666l4-2.333-4-2.333Z"/></svg>