<svg xmlns="http://www.w3.org/2000/svg" width="16" height="17" fill="none" viewBox="0 0 16 17"><g clip-path="url(#a)"><path fill="#737373" d="M12.655 15.075v-4.268h1.425V16.5H1.229v-5.693h1.419v4.268h10.008Zm-8.583-1.421h7.162v-1.425H4.072v1.425Zm.175-3.235 6.988 1.458.299-1.38L4.55 9.042l-.303 1.378Zm.906-3.37 6.47 3.019.601-1.3-6.468-3.02-.602 1.292-.001.01Zm1.81-3.19L12.44 8.43l.906-1.082L7.87 2.781l-.902 1.075-.005.004ZM10.499.5l-1.163.862 4.27 5.736 1.164-.861L10.5.5Z"/></g><defs><clipPath id="a"><path fill="#fff" d="M0 .5h16v16H0z"/></clipPath></defs></svg>