<svg width="16" height="16" viewBox="0 0 16 16" fill="none" xmlns="http://www.w3.org/2000/svg">
<g clip-path="url(#clip0_86_26225)">
<path d="M0.507563 8.13306L0.453063 8.10706C0.332724 8.03913 0.235665 7.9365 0.174562 7.81256C0.0869934 7.66038 0.0403124 7.48812 0.0390625 7.31256L0.0520625 7.22656C0.0520625 7.09356 0.0860625 6.97406 0.146063 6.85956L0.200563 6.76056C0.226563 6.70606 0.265563 6.65906 0.299563 6.61456C0.318038 6.59249 0.330802 6.56621 0.336731 6.53805C0.34266 6.50989 0.341572 6.4807 0.333562 6.45306L0.299563 6.34606C0.259012 6.217 0.237123 6.08281 0.234563 5.94756L0.213563 5.86706C0.213563 5.71856 0.252563 5.57256 0.346563 5.46606L0.414062 5.38006C0.461062 5.31256 0.534063 5.27306 0.614563 5.24706C0.679563 5.22606 0.726563 5.15856 0.734563 5.08056L0.747563 4.85406C0.747563 4.67456 0.833563 4.50756 0.966563 4.38506L1.12806 4.26506C1.15956 4.23356 1.19306 4.20006 1.21906 4.14506C1.25306 4.10606 1.26056 4.05106 1.25306 4.01206C1.24006 3.94706 1.25306 3.92606 1.28706 3.91806C1.39406 3.95956 1.46156 3.94656 1.50856 3.89206L1.59456 3.78006L1.83406 3.51206C1.86884 3.4757 1.89228 3.43 1.90152 3.38055C1.91075 3.33109 1.90538 3.28001 1.88606 3.23356L1.80806 3.05906C1.79506 3.02006 1.80806 2.97306 1.84206 2.96006C1.92806 2.96006 1.98806 2.99156 2.01406 3.04606L2.04006 3.09306C2.08156 3.17356 2.17556 3.21306 2.24056 3.17906C2.36236 3.13498 2.49104 3.11297 2.62056 3.11406H2.83406C2.98006 3.11406 3.09956 3.01256 3.12856 2.85906C3.15456 2.67406 3.21956 2.52556 3.31356 2.42656C3.41506 2.31206 3.52706 2.22606 3.66006 2.15856C3.83456 2.06756 3.94156 1.93206 3.97506 1.76006C4.02206 1.54656 4.13406 1.39306 4.28756 1.29406L4.79556 1.00756L4.94156 0.919056C5.02756 0.867056 5.10806 0.799056 5.17606 0.718556L5.30906 0.559556C5.36618 0.495872 5.44022 0.449744 5.52256 0.426556C5.58756 0.405556 5.68156 0.392556 5.76206 0.400556L6.02756 0.418556C6.16056 0.418556 6.26706 0.452556 6.37406 0.499056L6.44156 0.533056C6.50906 0.559056 6.57456 0.546056 6.60806 0.499056L6.66806 0.465056L6.95456 0.165556C6.98391 0.133747 7.02071 0.109736 7.06164 0.0956834C7.10258 0.0816312 7.14636 0.077979 7.18906 0.0850556C7.27506 0.0980556 7.36106 0.132056 7.44156 0.173556C7.56156 0.238556 7.66056 0.264556 7.77506 0.264556H7.84256C7.98856 0.264556 8.13406 0.285556 8.28256 0.319056L8.38156 0.345056C8.43016 0.356996 8.48119 0.354459 8.52837 0.337756C8.57554 0.321054 8.6168 0.290916 8.64706 0.251056C8.65176 0.243262 8.65814 0.236618 8.66573 0.231609C8.67333 0.2266 8.68195 0.223353 8.69096 0.222107C8.69997 0.22086 8.70915 0.221646 8.71782 0.224405C8.72649 0.227165 8.73443 0.231829 8.74106 0.238056C8.76206 0.251056 8.76706 0.264056 8.77506 0.285056C8.78806 0.418056 8.86906 0.519556 8.97556 0.550556L9.08256 0.584556C9.19456 0.618556 9.29606 0.691556 9.36106 0.785056C9.42856 0.884056 9.50956 0.985556 9.60056 1.05056L9.66806 1.11806C9.70118 1.15016 9.741 1.17453 9.78466 1.1894C9.82832 1.20427 9.87473 1.20928 9.92056 1.20406H10.3136C10.4751 1.20406 10.6286 1.23256 10.7826 1.29806C10.9286 1.36556 11.0821 1.37856 11.2201 1.32406C11.3686 1.27956 11.5221 1.25906 11.6756 1.27956L11.9621 1.32406C12.0951 1.33956 12.2276 1.40456 12.3086 1.50656L12.3426 1.53806C12.4076 1.60556 12.4756 1.69156 12.5406 1.78556C12.5623 1.82656 12.5949 1.86071 12.6349 1.8842C12.6749 1.90769 12.7207 1.91958 12.7671 1.91856H13.1811C13.2826 1.91856 13.3816 1.93956 13.4626 1.98606C13.5486 2.05106 13.6216 2.11906 13.6891 2.18656L13.7541 2.27256C13.8346 2.36656 13.8741 2.49156 13.8686 2.62656C13.8686 2.73356 13.9491 2.82456 14.0536 2.82456L14.1891 2.84006C14.2831 2.84006 14.3611 2.90506 14.4081 2.99106L14.4756 3.12656L14.6476 3.51206C14.6726 3.57118 14.6824 3.63565 14.6761 3.69956C14.6761 3.76456 14.6941 3.81956 14.7411 3.84556L14.8086 3.89256C14.8516 3.92475 14.8853 3.96773 14.9064 4.01717C14.9275 4.0666 14.9351 4.12072 14.9286 4.17406L14.8816 4.48656L14.8686 4.61956C14.8631 4.65711 14.8677 4.69544 14.8818 4.73065C14.8959 4.76587 14.9191 4.79671 14.9491 4.82006C15.0481 4.88506 15.0951 4.97356 15.1001 5.07256V5.20556C15.1001 5.27306 15.0871 5.35406 15.0351 5.40606C14.9906 5.46336 14.9668 5.53402 14.9676 5.60656L14.9886 5.76006C14.9886 5.86706 15.0536 5.96056 15.1216 6.02556C15.166 6.05928 15.2031 6.10157 15.2309 6.14993C15.2586 6.19828 15.2764 6.25171 15.2831 6.30706C15.3091 6.47356 15.3146 6.60656 15.3146 6.73956V6.89306C15.3146 6.94756 15.3146 7.00006 15.3356 7.05206C15.3504 7.10101 15.3806 7.14393 15.4216 7.17456L15.5546 7.27356C15.6901 7.35956 15.7836 7.47406 15.8361 7.62756C15.9036 7.77356 15.9221 7.92706 15.9221 8.08056V8.13256C15.9221 8.25256 15.9091 8.38005 15.8701 8.49205C15.8363 8.60184 15.8427 8.72005 15.8881 8.82555C15.9426 8.91955 15.9766 9.02606 15.9896 9.14056C16.0156 9.27356 16.0026 9.40605 15.9556 9.51305L15.9426 9.56006C15.9079 9.64176 15.8555 9.7147 15.7891 9.77356C15.7216 9.84106 15.6561 9.88056 15.6171 9.92706C15.5756 9.96606 15.5496 10.0341 15.5701 10.0936L15.5881 10.1876C15.6221 10.3206 15.6221 10.4531 15.5881 10.5731V10.6276C15.5621 10.7266 15.5231 10.8126 15.4811 10.8931C15.4361 10.9778 15.3673 11.0476 15.2831 11.0936L15.1816 11.1586C15.157 11.1748 15.1368 11.1968 15.1228 11.2227C15.1087 11.2486 15.1013 11.2776 15.1011 11.3071C15.1015 11.3705 15.0784 11.4318 15.0361 11.4791L14.9346 11.6146C14.8696 11.7006 14.7836 11.7736 14.6896 11.8126C14.605 11.8715 14.5264 11.9387 14.4551 12.0131C14.3882 12.0912 14.3384 12.1825 14.3091 12.2811C14.3 12.3331 14.2727 12.3802 14.2322 12.4141C14.1916 12.448 14.1404 12.4664 14.0876 12.4661H13.7281C13.6341 12.4661 13.5486 12.5336 13.5091 12.6146C13.4714 12.704 13.4196 12.7867 13.3556 12.8596C13.2913 12.927 13.2447 13.0092 13.2201 13.0991C13.2071 13.1796 13.1421 13.2346 13.0741 13.2061C13.0364 13.1889 12.9938 13.1863 12.9543 13.1987C12.9149 13.2112 12.8815 13.2379 12.8606 13.2736C12.7932 13.3906 12.7108 13.4983 12.6156 13.5941L12.5686 13.6331C12.4801 13.7006 12.3681 13.7531 12.2666 13.7531C12.1466 13.7531 12.0871 13.8076 12.0686 13.8861C12.0475 13.9609 12.0336 14.0376 12.0271 14.1151C12.0128 14.19 11.991 14.2634 11.9621 14.3341L11.9281 14.3731C11.8606 14.4746 11.8081 14.5736 11.7406 14.6596L11.7146 14.7011C11.6286 14.8131 11.5141 14.9016 11.3811 14.9331C11.2393 14.9805 11.0905 15.0033 10.9411 15.0006H10.8471C10.8107 15.0027 10.7755 15.0135 10.7442 15.0321C10.713 15.0507 10.6867 15.0766 10.6676 15.1076L10.6286 15.1751L10.5871 15.2531L10.5011 15.4016C10.4694 15.4593 10.4267 15.5102 10.3753 15.5513C10.3239 15.5924 10.2648 15.6229 10.2016 15.6411C10.0619 15.6751 9.91804 15.6883 9.77456 15.6801L9.66756 15.6671C9.57356 15.6671 9.48806 15.6411 9.40206 15.5996C9.33456 15.5736 9.24056 15.5996 9.20156 15.6671C9.14455 15.7493 9.06219 15.8106 8.96706 15.8416L8.76656 15.9066C8.6288 15.9406 8.48483 15.9406 8.34706 15.9066L8.24006 15.8726C8.17291 15.8679 8.10821 15.8454 8.05256 15.8076C7.99189 15.7751 7.92317 15.7607 7.85456 15.7661L7.76606 15.7816C7.63306 15.7946 7.51356 15.7816 7.39356 15.7476L7.21406 15.7061C7.1312 15.6802 7.06017 15.6258 7.01356 15.5526C6.99291 15.5162 6.96401 15.4852 6.92918 15.4621C6.89435 15.439 6.85457 15.4244 6.81306 15.4196H6.59956C6.46656 15.4016 6.34706 15.3546 6.26606 15.2531L6.00056 15.0006L5.90656 14.9201L5.76056 14.8131L5.67456 14.7481C5.57064 14.6763 5.45091 14.6306 5.32556 14.6151L4.92706 14.5476C4.88556 14.5476 4.85956 14.5346 4.82006 14.5266L4.66656 14.4926C4.59906 14.4796 4.53356 14.4276 4.48706 14.3596C4.44806 14.2946 4.37256 14.2656 4.30756 14.2946C4.17456 14.3466 4.06806 14.3596 3.96106 14.3806H3.86706C3.6974 14.3952 3.52684 14.3656 3.37206 14.2946C3.21306 14.2271 3.10656 14.1281 3.00756 14.0001C2.96728 13.9411 2.91568 13.8907 2.85578 13.8518C2.79587 13.8129 2.72883 13.7863 2.65856 13.7736L2.47356 13.7346C2.33513 13.7059 2.20344 13.6511 2.08556 13.5731C1.95256 13.4791 1.88506 13.3936 1.83306 13.2866C1.77893 13.1831 1.74692 13.0695 1.73906 12.9531V12.9011C1.72606 12.7656 1.63206 12.6461 1.50706 12.6146C1.37167 12.5751 1.24645 12.5066 1.14006 12.4141C1.09297 12.3695 1.05551 12.3158 1.02997 12.2562C1.00443 12.1966 0.991358 12.1324 0.991562 12.0676L1.00706 11.7731C1.00706 11.6586 0.973063 11.5596 0.892563 11.4866C0.812063 11.4061 0.759562 11.3071 0.759562 11.2001L0.738563 10.9606C0.722589 10.785 0.693846 10.6109 0.652562 10.4396C0.613562 10.2861 0.673563 10.1321 0.798563 10.0596L0.845563 10.0256C0.879273 10.0029 0.903457 9.96857 0.913508 9.92919C0.923559 9.88982 0.918773 9.84813 0.900063 9.81206L0.845563 9.74706C0.791633 9.68581 0.722459 9.63992 0.645063 9.61406C0.593063 9.59856 0.580063 9.54656 0.580063 9.51256L0.645063 9.43206C0.663423 9.40963 0.673454 9.38154 0.673454 9.35256C0.673454 9.32357 0.663423 9.29548 0.645063 9.27306C0.596516 9.22174 0.566283 9.15582 0.559062 9.08556L0.546063 8.61956C0.546063 8.52556 0.559063 8.43205 0.585063 8.34105C0.613563 8.26055 0.585062 8.16655 0.507062 8.12755L0.507563 8.13306ZM7.10656 7.25256C7.15356 7.20556 7.14556 7.11956 7.10656 7.08606C7.04385 7.03715 6.99164 6.9761 6.95306 6.90656L6.88556 6.79956C6.8405 6.71548 6.78245 6.63904 6.71356 6.57306L6.70056 6.56006C6.63426 6.50631 6.58165 6.43759 6.54706 6.35956C6.53035 6.32879 6.52159 6.29432 6.52159 6.25931C6.52159 6.22429 6.53035 6.18983 6.54706 6.15906L6.58606 6.09406C6.6288 6.02136 6.65204 5.93887 6.65356 5.85456V5.82606C6.65014 5.75502 6.62674 5.68639 6.58606 5.62806C6.55666 5.56851 6.53482 5.50552 6.52106 5.44056V5.40156C6.51135 5.36109 6.51099 5.31894 6.52 5.2783C6.52901 5.23767 6.54715 5.19963 6.57306 5.16706C6.62756 5.08106 6.66706 5.00056 6.68756 4.90156V4.88606C6.69942 4.84973 6.70302 4.81122 6.69809 4.77333C6.69316 4.73544 6.67982 4.69913 6.65906 4.66706C6.63881 4.63578 6.62594 4.6003 6.62144 4.5633C6.61693 4.52631 6.62091 4.48878 6.63306 4.45356L6.68006 4.32056C6.71906 4.20056 6.78156 4.09406 6.85956 4.00006L6.95356 3.90106L7.02106 3.82056L7.06006 3.78156C7.07979 3.75987 7.09177 3.73225 7.09412 3.70302C7.09648 3.6738 7.08907 3.64462 7.07306 3.62006C7.03779 3.55955 7.02404 3.48888 7.03406 3.41956L7.04706 3.32556C7.06806 3.19256 7.11456 3.06006 7.20056 2.95306L7.22656 2.92706C7.32556 2.79406 7.45306 2.70556 7.59906 2.65906L7.78156 2.59406C7.85956 2.56806 7.91456 2.47956 7.91456 2.39356C7.91456 2.28656 7.94856 2.19306 8.00806 2.10706L8.03956 2.07306C8.10706 1.96106 8.18806 1.84656 8.24006 1.72656L8.28706 1.64056C8.2998 1.62026 8.30704 1.597 8.30806 1.57306C8.30806 1.46106 8.24056 1.35956 8.13356 1.35406L7.84206 1.33306C7.67556 1.32006 7.50856 1.33306 7.34706 1.33306L6.78206 1.40056C6.69356 1.40056 6.62856 1.46556 6.62056 1.55956C6.61956 1.60387 6.60504 1.64682 6.57894 1.68266C6.55285 1.71849 6.51643 1.74549 6.47456 1.76006L6.23506 1.82506L6.16756 1.84606L5.96706 1.91356C5.89373 1.9376 5.82621 1.97665 5.76879 2.02821C5.71138 2.07977 5.66532 2.14272 5.63356 2.21306L5.58156 2.29906C5.51291 2.4467 5.40118 2.57011 5.26106 2.65306C5.12806 2.73906 5.06056 2.87956 5.04756 3.03856V3.10606C5.03456 3.23906 4.99306 3.37156 4.91456 3.46556L4.88056 3.52006C4.85413 3.55077 4.83691 3.58833 4.83089 3.6284C4.82488 3.66848 4.83031 3.70943 4.84656 3.74656C4.88056 3.82456 4.90106 3.91306 4.89356 3.99906V4.35306C4.89253 4.39529 4.87947 4.43636 4.85591 4.47144C4.83235 4.50651 4.79928 4.53413 4.76056 4.55106C4.7164 4.56703 4.67688 4.5937 4.64556 4.6287C4.61423 4.66369 4.59207 4.7059 4.58106 4.75156L4.54706 4.88456C4.53288 4.94936 4.53791 5.01689 4.56153 5.07888C4.58516 5.14087 4.62635 5.19463 4.68006 5.23356C4.78706 5.31156 4.85456 5.43156 4.88056 5.58006V5.70006C4.90156 5.83306 4.97456 5.96556 5.09406 6.03356C5.21406 6.11406 5.30756 6.23406 5.35956 6.36706L5.39356 6.47406C5.41609 6.53998 5.45702 6.59808 5.51151 6.6415C5.56599 6.68491 5.63177 6.71182 5.70106 6.71906H5.74006C5.86006 6.71906 5.96656 6.78656 6.03456 6.89356C6.09956 7.00056 6.20656 7.07306 6.32606 7.09406L6.51356 7.14606C6.62806 7.18006 6.73506 7.24006 6.82106 7.32556L6.83406 7.34106C6.8694 7.36715 6.91338 7.37873 6.95698 7.37343C7.00058 7.36813 7.0405 7.34635 7.06856 7.31256L7.11556 7.26056L7.10656 7.25256ZM7.86656 6.64056C7.93156 6.67956 7.99956 6.65856 8.02556 6.59906L8.04656 6.56756C8.09356 6.47356 8.15356 6.38006 8.21856 6.29956L8.35406 6.09906C8.37206 6.09906 8.38006 6.08606 8.38556 6.07306L8.54706 5.85956C8.61456 5.79456 8.69306 5.74756 8.78656 5.74756C8.8294 5.74777 8.87134 5.73524 8.90705 5.71156C8.94275 5.68787 8.9706 5.65411 8.98706 5.61456C9.01306 5.52056 9.05206 5.43206 9.13306 5.35956L9.16706 5.32056C9.23456 5.25306 9.30006 5.21906 9.36756 5.18756C9.45356 5.17456 9.53406 5.15906 9.61506 5.15906H9.81306C9.89356 5.15906 9.96156 5.12756 10.0006 5.06006C10.0396 4.99256 10.0996 4.94806 10.1671 4.91406L10.2346 4.88556C10.3416 4.84106 10.4611 4.80756 10.5811 4.79456L10.7141 4.78156C10.7946 4.78156 10.8806 4.78156 10.9616 4.82606C11.0266 4.87306 11.1151 4.86756 11.1806 4.81306L11.2276 4.78706C11.3266 4.71956 11.4411 4.66706 11.5611 4.65406H11.5741C11.7021 4.63156 11.8324 4.62451 11.9621 4.63306H12.0271C12.1601 4.65406 12.2746 4.70056 12.3606 4.79956L12.3816 4.82556C12.4491 4.89306 12.5536 4.94806 12.6471 4.94806H12.7616C12.7956 4.94806 12.8266 4.93256 12.8476 4.90106C12.8702 4.87713 12.9008 4.86236 12.9336 4.85956H13.0011C13.0951 4.85956 13.1806 4.88556 13.2666 4.91406L13.3811 4.96106C13.4881 4.99256 13.6001 5.02606 13.7146 5.03906H13.7951C13.8471 5.03906 13.8811 5.00756 13.8811 4.96106C13.8836 4.89536 13.8673 4.83031 13.8341 4.77356L13.7871 4.66656C13.7351 4.58056 13.6931 4.48706 13.6541 4.40106L13.6411 4.36706C13.6243 4.33629 13.6156 4.30182 13.6156 4.26681C13.6156 4.23179 13.6243 4.19733 13.6411 4.16656V4.13256C13.6477 4.10598 13.6445 4.07791 13.6321 4.05349C13.6197 4.02906 13.5989 4.00992 13.5736 3.99956H13.5216C13.4162 3.96799 13.3228 3.90544 13.2536 3.82006L13.1886 3.75256C13.1211 3.68756 13.0816 3.58606 13.0531 3.48706C13.0216 3.40106 12.9491 3.33356 12.8551 3.33356H12.5736C12.5247 3.32669 12.4777 3.31026 12.4353 3.2852C12.3928 3.26015 12.3557 3.22697 12.3261 3.18756L12.3001 3.15356C12.2519 3.08391 12.2142 3.0076 12.1881 2.92706C12.1541 2.85956 12.0811 2.82006 12.0136 2.84106L11.9331 2.86706C11.8001 2.91406 11.6676 2.93206 11.5346 2.91906L11.4276 2.90606C11.3131 2.90606 11.2061 2.85906 11.1201 2.79406L11.0526 2.74706C11.0018 2.70795 10.9458 2.67629 10.8861 2.65306C10.8211 2.62706 10.7661 2.64006 10.7271 2.68706L10.6931 2.72606C10.6254 2.79644 10.5369 2.84308 10.4406 2.85906L10.0811 2.88006C10.0131 2.88261 9.9487 2.91147 9.90156 2.96056C9.84996 3.00666 9.78694 3.03808 9.71906 3.05156H9.70606C9.64106 3.05156 9.57306 3.09856 9.50806 3.14556V3.15856C9.47648 3.19069 9.43881 3.21621 9.39727 3.23363C9.35572 3.25106 9.31112 3.26004 9.26606 3.26006L9.24006 3.27306C9.15956 3.27306 9.08106 3.27306 9.00056 3.29406H8.92006C8.80806 3.31206 8.71956 3.40606 8.69356 3.52606L8.66756 3.67956C8.64615 3.78411 8.60061 3.88222 8.53456 3.96606C8.46706 4.04656 8.38606 4.09906 8.28706 4.09906H8.17506C8.10756 4.11456 8.03956 4.18756 8.05256 4.26556C8.06806 4.38006 8.05256 4.47906 8.03456 4.58056L8.00856 4.69256C7.9971 4.74 7.97459 4.78406 7.94288 4.82116C7.91117 4.85826 7.87114 4.88735 7.82606 4.90606L7.78706 4.92706H7.77406C7.73506 4.95306 7.70656 5.01306 7.74006 5.06006C7.7785 5.11942 7.79511 5.19029 7.78706 5.26056L7.76606 5.47406C7.76179 5.55113 7.73952 5.62613 7.70106 5.69306C7.68191 5.72257 7.67066 5.7565 7.66839 5.79161C7.66611 5.82672 7.67289 5.86182 7.68806 5.89356L7.75306 6.03956C7.7873 6.10536 7.79482 6.18184 7.77406 6.25306C7.75123 6.31728 7.74236 6.38563 7.74806 6.45356C7.74806 6.52106 7.78706 6.58656 7.84206 6.61506L7.86656 6.64056ZM13.1326 11.4611C13.2001 11.5261 13.2991 11.5521 13.3801 11.5001L13.5131 11.4141C13.5831 11.3658 13.6347 11.2951 13.6591 11.2136V11.2006L13.7266 11.0001L13.7656 10.9326L13.7941 10.8676L13.8201 10.8206C13.8323 10.7927 13.8505 10.768 13.8735 10.7482C13.8966 10.7284 13.9237 10.714 13.9531 10.7061L13.9791 10.6931C14.0336 10.6801 14.0676 10.6281 14.0676 10.5731C14.0676 10.5081 14.0991 10.4531 14.1326 10.4066L14.1871 10.3596L14.3201 10.1876V10.1746C14.359 10.1198 14.3863 10.0577 14.4006 9.99205C14.4116 9.92469 14.4017 9.85556 14.3721 9.79405L14.3591 9.76556C14.3357 9.7106 14.3199 9.65274 14.3121 9.59356L14.2941 9.40606L14.2731 9.20555C14.2731 9.14055 14.2991 9.07256 14.3406 9.00756C14.3851 8.95306 14.4186 8.88506 14.4476 8.82006V8.79405L14.4606 8.78106C14.4736 8.71356 14.4396 8.64556 14.3801 8.64556C14.3126 8.61406 14.2471 8.55956 14.2266 8.47906L14.2056 8.44005C14.1729 8.32295 14.1554 8.20212 14.1536 8.08056L14.1666 7.74706V7.72606C14.166 7.67304 14.1447 7.62235 14.1073 7.58486C14.0698 7.54737 14.0191 7.52608 13.9661 7.52556H13.9531C13.8913 7.52798 13.8296 7.5174 13.7722 7.49449C13.7147 7.47158 13.6627 7.43685 13.6196 7.39256L13.5676 7.32506L13.4321 7.17406L13.2601 6.97356C13.1958 6.88071 13.1215 6.7952 13.0386 6.71856C12.9736 6.65356 12.8721 6.58556 12.7731 6.57256L12.6401 6.55156C12.5597 6.53498 12.483 6.50416 12.4136 6.46056C12.3591 6.41906 12.2806 6.43206 12.2261 6.48656L12.1401 6.58056L12.0986 6.60656C12.0516 6.61956 12.0076 6.59356 11.9866 6.53906C11.9584 6.45633 11.963 6.36595 11.9996 6.28656V6.24756C11.9996 6.20056 11.9606 6.16706 11.9191 6.18006H11.8121C11.6915 6.1845 11.5715 6.16231 11.4606 6.11506L11.3931 6.08656C11.325 6.05274 11.2501 6.03495 11.1741 6.03456C11.1037 6.03299 11.0343 6.05099 10.9736 6.08656L10.9476 6.10756C10.8671 6.15871 10.7748 6.18833 10.6796 6.19356H10.4606C10.3639 6.19256 10.2696 6.22369 10.1926 6.28206C10.1069 6.33348 10.0125 6.36873 9.91406 6.38606L9.73456 6.41456C9.64647 6.43313 9.56373 6.47142 9.49256 6.52656C9.42756 6.59406 9.33356 6.63356 9.24756 6.65956L9.21356 6.67506C9.10423 6.70719 9.01004 6.77743 8.94806 6.87306L8.86756 6.95356C8.84471 6.98445 8.83237 7.02187 8.83237 7.06031C8.83237 7.09874 8.84471 7.13616 8.86756 7.16706C8.90656 7.23456 8.98756 7.25306 9.06806 7.23456L9.16706 7.19306C9.21906 7.17506 9.28156 7.19306 9.32606 7.21906C9.34853 7.23719 9.37437 7.25069 9.4021 7.25876C9.42982 7.26683 9.45887 7.26931 9.48756 7.26606L9.65406 7.24806C9.74806 7.24806 9.84156 7.24806 9.93256 7.27406C10.0341 7.30806 10.1201 7.34156 10.2006 7.40706C10.2763 7.46857 10.3688 7.50585 10.4661 7.51406C10.5676 7.52706 10.6666 7.54806 10.7606 7.58156L10.8256 7.59456C10.8931 7.61556 10.9481 7.65956 10.9871 7.72756C11.0211 7.78206 11.0521 7.86056 11.0521 7.92806V7.94906C11.0521 8.02706 11.1196 8.08206 11.1876 8.08206H11.2266C11.3336 8.08206 11.4481 8.09506 11.5601 8.12906L11.6071 8.14706C11.6789 8.17362 11.7413 8.22074 11.7866 8.28256C11.8411 8.34756 11.8726 8.41556 11.8936 8.48056L11.9146 8.57456C11.9326 8.67606 11.9406 8.77506 11.9406 8.88206V8.91606C11.9406 8.98106 11.9876 9.04906 12.0606 9.07506C12.1281 9.08806 12.2066 9.11656 12.2821 9.15556L12.3136 9.16856C12.4021 9.22056 12.4881 9.28856 12.5531 9.36906L12.5871 9.41606C12.6756 9.51506 12.7201 9.64256 12.7201 9.76756V9.81456C12.7201 9.91606 12.7021 10.0151 12.6681 10.1091C12.6421 10.1896 12.6681 10.2836 12.7541 10.3096L12.8011 10.3436C12.9026 10.3826 12.9886 10.4556 13.0536 10.5416C13.1211 10.6431 13.1476 10.7551 13.1476 10.8751V11.0756C13.1346 11.1431 13.1161 11.1956 13.0826 11.2421C13.0491 11.2886 13.0486 11.3566 13.0826 11.4036L13.1216 11.4686L13.1326 11.4611ZM8.86656 8.04706H8.85356C8.82506 8.04706 8.81206 8.08106 8.81956 8.11456L8.84556 8.24756C8.87156 8.35456 8.88456 8.46106 8.90006 8.56806C8.91306 8.67506 8.96506 8.76606 9.04606 8.83356H9.07206C9.12101 8.87207 9.16117 8.92058 9.18989 8.97584C9.2186 9.03111 9.23519 9.09187 9.23856 9.15406V9.48756C9.22556 9.55256 9.23856 9.62056 9.28006 9.67506L9.31156 9.70656C9.37295 9.78287 9.40849 9.87672 9.41306 9.97456L9.43106 10.3416C9.43106 10.4276 9.37906 10.5006 9.29806 10.5136L9.23306 10.5266C9.18606 10.5266 9.16556 10.5811 9.16556 10.6281C9.16556 10.6801 9.18656 10.7401 9.20456 10.7946V10.8076C9.22556 10.8726 9.23306 10.9406 9.22556 11.0081L9.19956 11.1876C9.17508 11.3179 9.1302 11.4437 9.06656 11.5601L9.01956 11.6406C8.9906 11.6988 8.94287 11.7457 8.88406 11.7736C8.85248 11.7865 8.82417 11.8064 8.80117 11.8316C8.77817 11.8569 8.76106 11.8869 8.75106 11.9196L8.69906 12.1591C8.66124 12.3007 8.60242 12.4359 8.52456 12.5601H8.51156C8.432 12.6691 8.32984 12.7596 8.21206 12.8256L8.13156 12.8801L7.93106 12.9791C7.89914 12.9938 7.87143 13.0163 7.85046 13.0445C7.8295 13.0727 7.81595 13.1057 7.81106 13.1406L7.77956 13.3596C7.75856 13.4926 7.71206 13.6071 7.61806 13.6931L7.53206 13.7946L7.43056 13.8936L7.33156 14.0006C7.25106 14.0946 7.13106 14.1336 6.99806 14.1151L6.75856 14.0681L6.53706 14.0396H6.47706C6.45106 14.0681 6.44556 14.1071 6.46406 14.1466C6.51106 14.2271 6.58406 14.2821 6.66456 14.2821L6.81056 14.3081C6.87806 14.3081 6.95906 14.3421 7.02406 14.3731C7.09156 14.4201 7.15706 14.4536 7.23756 14.4746H7.25056C7.33906 14.5086 7.43006 14.5136 7.51856 14.5086L7.61756 14.4931C7.73206 14.4801 7.83906 14.4931 7.93006 14.5346L8.01056 14.5606C8.04456 14.5736 8.09656 14.5606 8.13056 14.5266C8.16872 14.4893 8.21394 14.4601 8.26356 14.4406L8.31806 14.4276C8.40406 14.4016 8.49006 14.3861 8.58356 14.3861H8.63806C8.71606 14.3861 8.79156 14.4016 8.85706 14.4406L8.88306 14.4536C8.93006 14.4746 8.98456 14.4536 9.01856 14.4146C9.03656 14.3676 9.08356 14.3206 9.13056 14.2816L9.29706 14.1671L9.40406 14.0996L9.45856 14.0681C9.52991 14.0222 9.61329 13.9987 9.69806 14.0006L9.93756 13.9796C9.98414 13.9736 10.028 13.9542 10.0636 13.9236C10.0992 13.8931 10.1251 13.8527 10.1381 13.8076C10.1641 13.7061 10.2031 13.6071 10.2711 13.5211C10.3386 13.4326 10.4041 13.3596 10.4716 13.2946C10.5466 13.2318 10.6395 13.1943 10.7371 13.1876H10.7916C10.8435 13.1772 10.89 13.1487 10.9228 13.1072C10.9557 13.0657 10.9728 13.0139 10.9711 12.9611V12.5131C10.9841 12.4481 11.0101 12.3596 11.0491 12.2941L11.1846 12.0936L11.2366 12.0261C11.2781 11.9921 11.3041 11.9481 11.3511 11.8931L11.4161 11.8071C11.4576 11.7396 11.4576 11.6536 11.4031 11.5936C11.3405 11.523 11.3014 11.4348 11.2911 11.3411V11.3126C11.2753 11.2013 11.2814 11.088 11.3091 10.9791V10.9476C11.3431 10.8591 11.3896 10.7731 11.4446 10.6926C11.47 10.6614 11.4821 10.6215 11.4782 10.5815C11.4742 10.5415 11.4546 10.5046 11.4236 10.4791L11.3091 10.3801C11.2176 10.2971 11.1608 10.1826 11.1501 10.0596L11.1371 9.92656C11.1371 9.88506 11.1371 9.84056 11.1241 9.79356L11.1111 9.69206C11.1025 9.63793 11.0826 9.58625 11.0525 9.54047C11.0224 9.49468 10.9829 9.45585 10.9366 9.42656L10.8896 9.41356C10.8155 9.36715 10.7517 9.30606 10.7021 9.23406C10.6501 9.16656 10.6241 9.07256 10.6031 8.97906L10.5821 8.86705C10.5821 8.82555 10.5561 8.79956 10.5171 8.78106L10.1966 8.67955C10.1291 8.66655 10.0636 8.61456 10.0171 8.56756H10.0041C9.96256 8.51306 9.89706 8.51306 9.85556 8.55206L9.79056 8.61956C9.77756 8.64056 9.76206 8.64556 9.74356 8.64056C9.70206 8.64056 9.67606 8.60656 9.68906 8.57306C9.69655 8.52088 9.69014 8.46766 9.67047 8.41876C9.65081 8.36986 9.61859 8.32702 9.57706 8.29456L9.48856 8.22706L9.29056 8.09406C9.23606 8.07306 9.15506 8.09406 9.12906 8.15906L9.10306 8.20055C9.10306 8.21355 9.08206 8.21855 9.07706 8.22655C9.04856 8.22655 9.00956 8.22656 9.00956 8.19256L8.98856 8.15856C8.97056 8.11956 8.92356 8.09356 8.88156 8.08056L8.86656 8.04706ZM8.06706 8.71356L8.03306 8.67955C7.99906 8.65355 7.96556 8.65856 7.93156 8.69256C7.8836 8.77186 7.84755 8.85778 7.82456 8.94756V8.96056C7.80656 9.04656 7.72556 9.10656 7.64506 9.09356H7.56706C7.52224 9.09448 7.47959 9.11307 7.4484 9.14528C7.41722 9.17749 7.40003 9.22072 7.40056 9.26556C7.40056 9.38556 7.35906 9.50756 7.28606 9.59906L7.24706 9.64056C7.17701 9.72509 7.0839 9.78746 6.97906 9.82006L6.92706 9.83306C6.89305 9.84172 6.86232 9.86017 6.83868 9.88612C6.81504 9.91207 6.79953 9.94438 6.79406 9.97906C6.79406 10.0466 6.75256 10.1146 6.70006 10.1666L6.63256 10.2186C6.55206 10.3071 6.43206 10.3541 6.31206 10.3671L5.97856 10.4011C5.87156 10.4011 5.78056 10.4661 5.71306 10.5676C5.64556 10.6666 5.54656 10.7341 5.44756 10.7471L5.29906 10.7601C5.18798 10.7751 5.07514 10.7707 4.96556 10.7471L4.90056 10.7341L4.71806 10.6871C4.69001 10.6769 4.65946 10.676 4.63086 10.6845C4.60226 10.6929 4.5771 10.7103 4.55906 10.7341L4.49156 10.8201C4.45083 10.8675 4.39922 10.9044 4.34115 10.9275C4.28307 10.9507 4.22026 10.9594 4.15806 10.9531L3.72556 10.9011C3.65806 10.9011 3.60556 10.8671 3.54606 10.8336C3.47856 10.7946 3.43156 10.7476 3.38456 10.7006L3.21806 10.5001C3.20006 10.4871 3.16606 10.4791 3.13206 10.4871L3.03806 10.5261L2.66556 10.6201C2.59806 10.6411 2.51206 10.6201 2.44656 10.5811C2.37906 10.5266 2.29806 10.5136 2.21756 10.5136H2.13156C2.11204 10.5185 2.09371 10.5274 2.07768 10.5396C2.06164 10.5518 2.04823 10.5671 2.03825 10.5846C2.02826 10.6021 2.0219 10.6214 2.01955 10.6414C2.0172 10.6614 2.0189 10.6817 2.02456 10.7011L2.05056 10.8341C2.07156 10.9016 2.06606 10.9801 2.03256 11.0476C1.99906 11.1151 2.00656 11.1806 2.05056 11.2481L2.09206 11.3001C2.14406 11.3806 2.22506 11.4486 2.29256 11.5136C2.35756 11.5811 2.42556 11.6466 2.47756 11.7351L2.57906 11.9146C2.60104 11.9591 2.63523 11.9965 2.67763 12.0223C2.72003 12.0482 2.76891 12.0614 2.81856 12.0606C2.91756 12.0606 3.01906 12.0946 3.09706 12.1596L3.29756 12.3471C3.35206 12.3941 3.43056 12.4016 3.48506 12.3601L3.51906 12.3471C3.55806 12.3471 3.58406 12.3731 3.58406 12.4146V12.4486C3.58406 12.5346 3.65156 12.6151 3.73756 12.6466L4.03706 12.7141C4.14406 12.7481 4.25056 12.7816 4.35206 12.8471H4.40406C4.41753 12.847 4.43084 12.8441 4.4431 12.8386C4.45537 12.833 4.4663 12.8249 4.47519 12.8148C4.48408 12.8046 4.49072 12.7927 4.49466 12.7799C4.4986 12.767 4.49976 12.7534 4.49806 12.7401V12.5081C4.49806 12.4406 4.52406 12.3726 4.57856 12.3466L4.61256 12.3336C4.64406 12.3466 4.67756 12.3726 4.66456 12.4011V12.5131C4.66456 12.5991 4.69056 12.6796 4.75056 12.7396C4.77894 12.7697 4.81548 12.7908 4.8557 12.8005C4.89592 12.8102 4.93809 12.8079 4.97706 12.7941C5.05756 12.7601 5.13856 12.7526 5.22456 12.7601L5.47206 12.7731C5.59206 12.7861 5.70406 12.7731 5.80556 12.7261C5.92556 12.6871 6.02456 12.6321 6.11806 12.5596L6.15706 12.5336L6.35756 12.3541C6.41925 12.2906 6.50356 12.2541 6.59206 12.2526H6.85756C6.92509 12.2436 6.98784 12.2128 7.03623 12.1649C7.08463 12.117 7.116 12.0545 7.12556 11.9871L7.15156 11.8541C7.15156 11.7656 7.19056 11.6876 7.25056 11.6196C7.31806 11.5521 7.38356 11.5126 7.45106 11.4866L7.53156 11.4526C7.58805 11.4279 7.63863 11.3914 7.67992 11.3456C7.72122 11.2998 7.75229 11.2458 7.77106 11.1871L7.81006 11.0256C7.84406 10.8926 7.91156 10.7601 8.01056 10.6741L8.02356 10.6586C8.10406 10.5936 8.11756 10.4606 8.06506 10.3671L8.04406 10.3201C8.02073 10.2827 8.00665 10.2403 8.003 10.1963C7.99935 10.1524 8.00623 10.1083 8.02306 10.0676C8.05706 9.97356 8.09056 9.89306 8.14306 9.81256L8.21056 9.71856C8.23656 9.66656 8.23656 9.58555 8.19756 9.53905C8.15526 9.48653 8.13152 9.42148 8.13006 9.35406L8.11706 9.26006V9.03356C8.12698 8.95909 8.1198 8.88334 8.09606 8.81206L8.07006 8.73406L8.06706 8.71356ZM7.11406 8.20555V8.18756C7.11406 8.12006 7.07256 8.08056 7.02006 8.08056H6.84556C6.78374 8.09357 6.71988 8.09357 6.65806 8.08056H6.35856C6.20506 8.08056 6.05906 8.05206 5.91306 8.01306L5.75156 7.97406L5.61856 7.93256L5.31906 7.83356C5.24219 7.8116 5.17086 7.77354 5.10983 7.72191C5.04879 7.67027 4.99945 7.60623 4.96506 7.53406L4.93106 7.46656C4.88406 7.36756 4.78506 7.31306 4.68606 7.33356C4.57156 7.33356 4.45956 7.33356 4.35256 7.28156L4.27206 7.24756C4.11856 7.18006 4.00656 7.04706 4.00656 6.86756L3.97806 6.68806C3.96006 6.59406 3.90006 6.50856 3.81906 6.47456C3.72534 6.43146 3.63566 6.38009 3.55106 6.32106L3.51956 6.30006C3.41416 6.21942 3.33302 6.11129 3.28506 5.98756L3.27206 5.94856C3.23775 5.84059 3.23326 5.72536 3.25906 5.61506L3.27206 5.57356C3.29806 5.48756 3.30606 5.40156 3.30606 5.30806C3.30506 5.22474 3.27129 5.14517 3.21206 5.08656L3.11806 5.00056C3.06485 4.95757 3.02134 4.9038 2.9904 4.84278C2.95946 4.78177 2.94179 4.71489 2.93856 4.64656C2.92331 4.5043 2.92768 4.36062 2.95156 4.21956V4.18056C2.95143 4.14532 2.93738 4.11157 2.91246 4.08666C2.88755 4.06174 2.8538 4.04769 2.81856 4.04756H2.79756C2.71156 4.04756 2.63856 4.09956 2.59706 4.18056C2.56389 4.26886 2.51436 4.35011 2.45106 4.42006L2.42506 4.45406L2.22456 4.65456C2.15706 4.71956 2.11756 4.82106 2.10456 4.92006C2.09208 5.02159 2.06497 5.12079 2.02406 5.21456L2.01106 5.24856C1.97888 5.32799 1.92585 5.39726 1.85756 5.44906C1.82479 5.47407 1.79781 5.50588 1.77848 5.5423C1.75915 5.57872 1.74792 5.61889 1.74556 5.66006L1.73256 5.96756C1.73256 6.10056 1.71156 6.23556 1.66506 6.36856L1.65206 6.42056C1.63501 6.46082 1.63383 6.50604 1.64876 6.54713C1.6637 6.58823 1.69364 6.62214 1.73256 6.64206L2.01106 6.76206L2.03706 6.77506C2.05806 6.77506 2.06556 6.78806 2.07106 6.80906C2.09206 6.83506 2.07106 6.87406 2.05006 6.87406L1.98506 6.90806C1.94606 6.92106 1.91756 6.96256 1.90456 7.00956L1.89156 7.07456V7.08756L1.82406 7.46256C1.81106 7.51456 1.81106 7.57456 1.81106 7.63456C1.8111 7.66028 1.81877 7.68541 1.8331 7.70677C1.84743 7.72813 1.86778 7.74476 1.89156 7.75456L2.03756 7.82206C2.10506 7.86106 2.18606 7.90806 2.23806 7.95506L2.30556 8.00956C2.3264 8.03676 2.35305 8.05897 2.38356 8.07456L2.41206 8.10056C2.45798 8.14122 2.49071 8.19467 2.50606 8.25406L2.57106 8.55356C2.57106 8.63406 2.63856 8.70206 2.70406 8.72006L2.81106 8.75406C2.81106 8.75406 2.83206 8.75406 2.84506 8.76706L2.97806 8.80856C3.08506 8.84256 3.17856 8.90256 3.25956 8.98056C3.34006 9.04806 3.41856 9.13406 3.48606 9.22806L3.51206 9.25406C3.56656 9.32156 3.64506 9.35556 3.72556 9.33456C3.80606 9.31356 3.89206 9.30856 3.97806 9.30856H4.07956C4.14456 9.30856 4.23306 9.32656 4.30606 9.37356C4.37106 9.41506 4.45956 9.44106 4.53806 9.47506H4.55906C4.59727 9.49036 4.63866 9.49599 4.67957 9.49146C4.72048 9.48692 4.75964 9.47236 4.79356 9.44906C4.8617 9.39536 4.94633 9.36692 5.03306 9.36856L5.34556 9.38656C5.41306 9.38656 5.47856 9.37356 5.51206 9.32156H5.52506L5.63956 9.21456L5.67356 9.18056C5.69995 9.15033 5.73234 9.12593 5.76866 9.10888C5.80498 9.09184 5.84445 9.08253 5.88456 9.08156H6.18656C6.26456 9.08156 6.34006 9.01405 6.37156 8.94855C6.38907 8.9137 6.41437 8.88335 6.4455 8.85986C6.47663 8.83636 6.51275 8.82034 6.55106 8.81306L6.68656 8.78706C6.73856 8.78706 6.78556 8.74006 6.80656 8.68006C6.8225 8.61817 6.85706 8.56267 6.90556 8.52106L7.01256 8.41405C7.07358 8.35773 7.1139 8.28254 7.12706 8.20055L7.11406 8.20555Z" fill="#737373"/>
</g>
<defs>
<clipPath id="clip0_86_26225">
<rect width="16" height="16" fill="white"/>
</clipPath>
</defs>
</svg>
