<svg xmlns="http://www.w3.org/2000/svg" width="16" height="16" fill="none" viewBox="0 0 16 16"><g clip-path="url(#a)"><path fill="#737373" d="m.508 8.133-.055-.026a.687.687 0 0 1-.278-.294 1.017 1.017 0 0 1-.136-.5l.013-.086c0-.133.034-.253.094-.367l.055-.1c.026-.054.065-.1.099-.145a.175.175 0 0 0 .034-.162L.3 6.346a1.419 1.419 0 0 1-.065-.398l-.021-.08a.6.6 0 0 1 .133-.402l.067-.086a.373.373 0 0 1 .2-.133c.066-.02.113-.088.12-.166l.014-.227c0-.18.086-.346.219-.469l.161-.12c.032-.031.065-.065.091-.12a.163.163 0 0 0 .034-.133c-.013-.065 0-.086.034-.094.107.042.175.029.222-.026l.086-.112.24-.268a.26.26 0 0 0 .051-.278l-.078-.175c-.013-.039 0-.086.034-.099.086 0 .146.032.172.086l.026.047c.042.08.136.12.2.086a1.09 1.09 0 0 1 .38-.065h.214a.299.299 0 0 0 .295-.255.779.779 0 0 1 .185-.432c.101-.115.213-.2.346-.268a.564.564 0 0 0 .315-.399.716.716 0 0 1 .313-.466l.508-.286.146-.089a.957.957 0 0 0 .234-.2l.133-.16a.451.451 0 0 1 .214-.132.639.639 0 0 1 .24-.026l.265.018c.133 0 .24.034.346.08l.068.034c.067.026.133.013.166-.034l.06-.034.287-.3a.261.261 0 0 1 .234-.08.836.836 0 0 1 .253.089.66.66 0 0 0 .333.09h.068c.146 0 .291.022.44.055l.099.026a.257.257 0 0 0 .265-.094.061.061 0 0 1 .094-.013c.021.013.026.026.034.047.013.133.094.235.2.266l.108.034a.532.532 0 0 1 .278.2c.068.1.149.2.24.266l.067.067a.312.312 0 0 0 .253.086h.393c.161 0 .315.029.469.094.146.068.3.08.437.026.149-.044.302-.065.456-.044l.286.044c.133.016.266.08.347.183l.034.031c.065.068.133.154.198.248a.25.25 0 0 0 .226.133h.414c.102 0 .2.02.282.067.086.065.159.133.226.2l.065.087c.08.094.12.219.115.354 0 .107.08.198.185.198l.135.015c.094 0 .172.065.22.151l.067.136.172.385c.025.06.034.124.028.188 0 .065.018.12.065.146l.068.047a.305.305 0 0 1 .12.281l-.047.313-.013.133a.215.215 0 0 0 .08.2.312.312 0 0 1 .151.253v.133c0 .067-.013.148-.065.2a.321.321 0 0 0-.067.2l.02.154c0 .107.066.2.134.266a.418.418 0 0 1 .161.281c.026.167.032.3.032.433v.153c0 .055 0 .107.02.16a.24.24 0 0 0 .087.122l.133.099c.135.086.229.2.281.354.068.146.086.3.086.453v.052c0 .12-.013.247-.052.36a.484.484 0 0 0 .018.333c.055.094.089.2.102.315a.634.634 0 0 1-.034.372l-.013.047a.597.597 0 0 1-.154.214c-.067.067-.133.107-.172.153-.041.039-.067.107-.047.167l.018.094a.74.74 0 0 1 0 .385v.055a1.258 1.258 0 0 1-.107.265.49.49 0 0 1-.198.2l-.101.066a.178.178 0 0 0-.08.148.256.256 0 0 1-.066.172l-.101.136a.614.614 0 0 1-.245.198 1.557 1.557 0 0 0-.235.2.733.733 0 0 0-.146.268.224.224 0 0 1-.221.185h-.36c-.094 0-.18.068-.219.149a.903.903 0 0 1-.153.245.562.562 0 0 0-.136.24c-.013.08-.078.135-.146.106a.167.167 0 0 0-.213.068c-.068.117-.15.224-.245.32l-.047.04a.533.533 0 0 1-.302.12c-.12 0-.18.054-.198.132a1.219 1.219 0 0 0-.042.23 1.148 1.148 0 0 1-.065.218l-.034.04c-.067.1-.12.2-.187.286l-.026.041a.61.61 0 0 1-.334.232c-.142.047-.29.07-.44.068h-.094a.227.227 0 0 0-.18.107l-.038.067-.042.078-.086.149a.5.5 0 0 1-.3.24c-.14.033-.283.046-.426.038l-.107-.013a.6.6 0 0 1-.266-.067c-.067-.026-.161 0-.2.067a.458.458 0 0 1-.235.175l-.2.065a.875.875 0 0 1-.42 0l-.107-.034a.381.381 0 0 1-.187-.065.36.36 0 0 0-.198-.042l-.089.016a.98.98 0 0 1-.372-.034l-.18-.042a.368.368 0 0 1-.2-.153.266.266 0 0 0-.2-.133H6.6a.491.491 0 0 1-.334-.167l-.265-.252-.094-.08-.146-.108-.086-.065a.783.783 0 0 0-.35-.133l-.398-.067c-.041 0-.067-.013-.107-.021l-.153-.034a.303.303 0 0 1-.18-.133c-.039-.065-.114-.094-.18-.065-.132.052-.239.065-.346.086h-.094a.985.985 0 0 1-.495-.086.88.88 0 0 1-.364-.295.54.54 0 0 0-.35-.226l-.184-.04a1.112 1.112 0 0 1-.388-.16.709.709 0 0 1-.253-.287.842.842 0 0 1-.094-.334v-.052a.326.326 0 0 0-.232-.286.976.976 0 0 1-.367-.2.475.475 0 0 1-.148-.347l.015-.295a.369.369 0 0 0-.114-.286.41.41 0 0 1-.133-.287l-.021-.24a3.625 3.625 0 0 0-.086-.52.337.337 0 0 1 .146-.38l.047-.034A.166.166 0 0 0 .9 9.812l-.054-.065a.462.462 0 0 0-.2-.133C.592 9.6.58 9.547.58 9.513l.065-.08a.126.126 0 0 0 0-.16.32.32 0 0 1-.086-.187L.546 8.62c0-.094.013-.188.04-.279.028-.08 0-.174-.079-.213v.005Zm6.599-.88c.047-.047.039-.133 0-.167a.592.592 0 0 1-.154-.18L6.886 6.8a.907.907 0 0 0-.172-.227L6.7 6.56a.54.54 0 0 1-.154-.2.21.21 0 0 1 0-.2l.04-.066a.49.49 0 0 0 .067-.24v-.028a.378.378 0 0 0-.068-.198.796.796 0 0 1-.065-.187V5.4a.274.274 0 0 1 .052-.234.773.773 0 0 0 .115-.265v-.016a.257.257 0 0 0-.029-.219.245.245 0 0 1-.026-.213l.047-.133A.971.971 0 0 1 6.86 4l.094-.1.067-.08.04-.04a.132.132 0 0 0 .012-.16.31.31 0 0 1-.039-.201l.013-.094a.786.786 0 0 1 .154-.373l.026-.026a.737.737 0 0 1 .372-.268l.183-.065c.078-.026.133-.114.133-.2 0-.107.034-.2.093-.287l.032-.034c.067-.112.148-.226.2-.346l.047-.086a.138.138 0 0 0 .021-.068c0-.112-.067-.213-.174-.219l-.292-.02c-.166-.014-.333 0-.495 0l-.565.067c-.088 0-.153.065-.161.159a.217.217 0 0 1-.146.2l-.24.065-.067.021-.2.068a.556.556 0 0 0-.334.3l-.052.085a.807.807 0 0 1-.32.354.488.488 0 0 0-.214.386v.067a.667.667 0 0 1-.133.36l-.034.054a.215.215 0 0 0-.034.227.528.528 0 0 1 .047.252v.354a.222.222 0 0 1-.133.198.284.284 0 0 0-.18.2l-.034.134a.341.341 0 0 0 .133.349.526.526 0 0 1 .2.346v.12a.465.465 0 0 0 .214.334c.12.08.214.2.266.333l.034.107a.365.365 0 0 0 .307.245h.04c.12 0 .226.068.294.175a.43.43 0 0 0 .291.2l.188.052a.73.73 0 0 1 .307.18l.013.015a.172.172 0 0 0 .235-.028l.047-.052-.01-.008Zm.76-.612c.065.039.133.018.159-.042l.02-.031A1.51 1.51 0 0 1 8.22 6.3l.135-.2c.018 0 .026-.014.032-.027l.161-.213a.346.346 0 0 1 .24-.112.216.216 0 0 0 .2-.133.503.503 0 0 1 .146-.255l.034-.04a.646.646 0 0 1 .2-.132c.087-.013.167-.029.248-.029h.198c.08 0 .149-.031.188-.099a.38.38 0 0 1 .166-.146l.068-.028c.107-.045.226-.078.346-.091l.133-.013c.08 0 .167 0 .248.044a.177.177 0 0 0 .219-.013l.047-.026a.747.747 0 0 1 .333-.133h.013c.128-.022.258-.03.388-.02h.065a.527.527 0 0 1 .334.166l.02.026a.408.408 0 0 0 .266.122h.115a.1.1 0 0 0 .086-.047.134.134 0 0 1 .086-.041H13c.094 0 .18.026.266.054l.114.047c.107.032.22.065.334.078h.08c.052 0 .086-.031.086-.078a.345.345 0 0 0-.047-.187l-.047-.107c-.052-.086-.094-.18-.133-.266l-.013-.034a.21.21 0 0 1 0-.2v-.034A.114.114 0 0 0 13.574 4h-.052a.547.547 0 0 1-.268-.18l-.065-.067a.599.599 0 0 1-.136-.266c-.031-.086-.104-.153-.198-.153h-.281a.374.374 0 0 1-.248-.146l-.026-.034a.868.868 0 0 1-.112-.227c-.034-.067-.107-.107-.174-.086l-.08.026a.916.916 0 0 1-.4.052l-.106-.013a.517.517 0 0 1-.308-.112l-.067-.047a.673.673 0 0 0-.167-.094c-.065-.026-.12-.013-.159.034l-.034.04a.453.453 0 0 1-.252.132l-.36.021a.263.263 0 0 0-.18.08.387.387 0 0 1-.182.092h-.013c-.065 0-.133.047-.198.094v.013a.34.34 0 0 1-.242.101l-.026.013c-.08 0-.159 0-.24.021h-.08a.289.289 0 0 0-.226.232l-.026.154a.685.685 0 0 1-.133.286c-.068.08-.149.133-.248.133h-.112c-.067.016-.135.089-.122.167a.976.976 0 0 1-.018.315l-.026.112a.31.31 0 0 1-.183.213l-.039.021h-.013c-.039.026-.067.086-.034.133.038.06.055.13.047.2l-.02.214a.494.494 0 0 1-.066.22.205.205 0 0 0-.013.2l.065.146a.288.288 0 0 1 .021.213.479.479 0 0 0-.026.2c0 .068.04.134.094.162l.025.026Zm5.266 4.82c.067.065.166.091.247.04l.133-.087a.374.374 0 0 0 .146-.2V11.2l.068-.2.039-.068.028-.065.026-.047a.202.202 0 0 1 .133-.115l.026-.013c.055-.013.089-.065.089-.12 0-.065.031-.12.065-.166l.054-.047.133-.172v-.013a.499.499 0 0 0 .08-.183.333.333 0 0 0-.028-.198l-.013-.028a.659.659 0 0 1-.047-.172l-.018-.188-.02-.2c0-.065.025-.133.067-.198a.836.836 0 0 0 .107-.188v-.026l.013-.013c.013-.067-.021-.135-.08-.135-.068-.032-.134-.086-.154-.167l-.021-.039a1.415 1.415 0 0 1-.052-.36l.013-.333v-.02a.203.203 0 0 0-.2-.201h-.014a.442.442 0 0 1-.333-.133l-.052-.068-.136-.15-.172-.201a1.546 1.546 0 0 0-.221-.255.506.506 0 0 0-.266-.146l-.133-.021a.686.686 0 0 1-.226-.091c-.055-.042-.133-.029-.188.026l-.086.094-.041.026c-.047.013-.091-.013-.112-.068A.34.34 0 0 1 12 6.287v-.04c0-.046-.04-.08-.08-.067h-.108a.82.82 0 0 1-.351-.065l-.068-.028a.498.498 0 0 0-.219-.052.38.38 0 0 0-.2.052l-.026.02a.557.557 0 0 1-.268.087h-.22a.436.436 0 0 0-.267.088.817.817 0 0 1-.279.104l-.18.029a.596.596 0 0 0-.241.112.566.566 0 0 1-.245.133l-.034.015a.476.476 0 0 0-.266.198l-.08.08a.18.18 0 0 0 0 .214c.039.068.12.086.2.068l.1-.042c.051-.018.114 0 .158.026a.218.218 0 0 0 .162.047l.166-.018c.094 0 .188 0 .279.026a.801.801 0 0 1 .268.133.486.486 0 0 0 .265.107c.102.013.2.034.295.068l.065.013a.278.278 0 0 1 .161.133.414.414 0 0 1 .065.2v.021c0 .078.068.133.136.133h.039c.107 0 .221.013.333.047l.047.018a.39.39 0 0 1 .18.136.577.577 0 0 1 .107.198l.02.094c.019.101.027.2.027.307v.034c0 .065.047.133.12.16a.854.854 0 0 1 .221.08l.032.013c.088.052.174.12.24.2l.033.047a.529.529 0 0 1 .133.352v.047c0 .101-.018.2-.052.294-.026.08 0 .175.086.2l.047.035a.588.588 0 0 1 .253.198.585.585 0 0 1 .094.333v.2a.402.402 0 0 1-.065.167.141.141 0 0 0 0 .162l.039.065.01-.008ZM8.867 8.047h-.013c-.029 0-.042.034-.034.068l.026.133c.026.107.039.213.054.32a.404.404 0 0 0 .146.266h.026a.438.438 0 0 1 .167.32v.334a.232.232 0 0 0 .041.187l.032.032c.061.076.096.17.101.268l.018.367c0 .086-.052.159-.133.172l-.065.013c-.047 0-.067.054-.067.101 0 .052.02.112.039.167v.013a.479.479 0 0 1 .02.2l-.025.18c-.025.13-.07.256-.133.372l-.047.08a.29.29 0 0 1-.136.134.23.23 0 0 0-.133.146l-.052.24a1.468 1.468 0 0 1-.174.4h-.013a.939.939 0 0 1-.3.266l-.08.054-.2.1a.21.21 0 0 0-.12.16l-.032.22a.547.547 0 0 1-.162.333l-.086.102-.101.099-.1.107a.359.359 0 0 1-.333.114l-.24-.047-.22-.028h-.06c-.027.028-.032.067-.014.107.047.08.12.135.2.135l.147.026c.067 0 .148.034.213.065.068.047.133.08.214.102h.013c.088.034.18.039.268.034l.099-.016a.59.59 0 0 1 .312.042l.08.026c.035.013.087 0 .12-.034a.399.399 0 0 1 .134-.086l.054-.013a.902.902 0 0 1 .266-.042h.054c.078 0 .154.016.22.055l.025.013c.047.02.102 0 .136-.04a.373.373 0 0 1 .112-.132l.166-.115.107-.067.055-.032a.425.425 0 0 1 .24-.067l.239-.021a.24.24 0 0 0 .2-.172.754.754 0 0 1 .133-.287c.068-.088.133-.161.2-.226a.463.463 0 0 1 .266-.107h.055a.223.223 0 0 0 .18-.227v-.448a.745.745 0 0 1 .077-.219l.136-.2.052-.068c.041-.034.067-.078.114-.133l.065-.086c.042-.067.042-.153-.013-.213a.456.456 0 0 1-.112-.253v-.028a.862.862 0 0 1 .018-.334v-.031a1.25 1.25 0 0 1 .136-.255.153.153 0 0 0-.021-.214l-.115-.099a.49.49 0 0 1-.159-.32l-.013-.133c0-.042 0-.086-.013-.133l-.013-.102a.386.386 0 0 0-.174-.265l-.047-.013a.64.64 0 0 1-.188-.18.657.657 0 0 1-.099-.255l-.02-.112c0-.041-.027-.067-.066-.086l-.32-.101a.38.38 0 0 1-.18-.112h-.013c-.041-.055-.107-.055-.148-.016l-.065.068c-.013.02-.029.026-.047.02-.042 0-.068-.033-.055-.067a.3.3 0 0 0-.112-.278l-.088-.068-.198-.133c-.055-.02-.136 0-.162.065l-.026.042c0 .013-.02.018-.026.026-.028 0-.067 0-.067-.034l-.021-.034c-.018-.04-.065-.065-.107-.078l-.015-.034Zm-.8.667-.034-.034c-.034-.026-.067-.021-.101.013a.946.946 0 0 0-.107.255v.013c-.018.086-.1.146-.18.133h-.078a.17.17 0 0 0-.166.172c0 .12-.042.242-.115.333l-.039.042a.567.567 0 0 1-.268.18l-.052.012a.18.18 0 0 0-.133.146c0 .068-.041.136-.094.188l-.067.052a.505.505 0 0 1-.32.148l-.334.034c-.107 0-.198.065-.266.167a.4.4 0 0 1-.265.18l-.149.012a.968.968 0 0 1-.333-.013l-.065-.013-.183-.047a.14.14 0 0 0-.159.047l-.067.086a.387.387 0 0 1-.334.133l-.432-.052c-.068 0-.12-.034-.18-.067-.067-.04-.114-.086-.161-.133l-.167-.2a.112.112 0 0 0-.086-.014l-.094.04-.372.093c-.068.021-.154 0-.22-.039a.35.35 0 0 0-.228-.067h-.086a.149.149 0 0 0-.112.127.15.15 0 0 0 .005.06l.026.133a.292.292 0 0 1-.018.214c-.034.067-.026.133.018.2l.041.052c.052.08.133.149.2.214.066.067.134.133.186.221l.101.18a.262.262 0 0 0 .24.146c.099 0 .2.034.278.099l.2.187c.055.047.134.055.188.013l.034-.013c.04 0 .065.026.065.068v.034c0 .086.068.166.154.198l.3.067c.106.034.213.068.314.133h.052a.097.097 0 0 0 .071-.032.096.096 0 0 0 .023-.075v-.232c0-.067.026-.135.08-.161l.035-.013c.031.013.065.039.052.067v.112c0 .086.026.167.086.227a.213.213 0 0 0 .226.054c.08-.034.162-.041.248-.034l.247.013c.12.013.232 0 .334-.047.12-.039.219-.094.312-.166l.04-.026.2-.18a.335.335 0 0 1 .234-.101h.266a.313.313 0 0 0 .268-.266l.026-.133c0-.088.039-.166.099-.234a.562.562 0 0 1 .2-.133l.08-.034a.434.434 0 0 0 .24-.266l.04-.161a.7.7 0 0 1 .2-.352l.013-.015c.08-.065.094-.198.041-.292l-.02-.047a.277.277 0 0 1-.022-.252 1.18 1.18 0 0 1 .12-.255l.068-.094c.026-.052.026-.133-.013-.18a.306.306 0 0 1-.068-.185l-.013-.094v-.226a.494.494 0 0 0-.02-.222l-.027-.078-.003-.02Zm-.953-.508v-.018c0-.068-.041-.107-.094-.107h-.174a.455.455 0 0 1-.188 0h-.3c-.153 0-.299-.029-.445-.068l-.161-.039-.133-.041-.3-.1a.564.564 0 0 1-.354-.299l-.034-.067c-.047-.1-.146-.154-.245-.133-.114 0-.226 0-.333-.052l-.08-.034c-.154-.068-.266-.2-.266-.38l-.029-.18a.29.29 0 0 0-.159-.213 1.736 1.736 0 0 1-.268-.154l-.031-.02a.722.722 0 0 1-.235-.313l-.013-.04a.629.629 0 0 1-.013-.333l.013-.041a.898.898 0 0 0 .034-.266.317.317 0 0 0-.094-.221L3.118 5a.485.485 0 0 1-.18-.354 1.561 1.561 0 0 1 .014-.427v-.04a.133.133 0 0 0-.133-.132h-.021c-.086 0-.16.052-.2.133a.75.75 0 0 1-.147.24l-.026.033-.2.2a.456.456 0 0 0-.12.266c-.013.102-.04.2-.08.295l-.014.034a.476.476 0 0 1-.153.2.286.286 0 0 0-.112.211l-.013.308c0 .133-.021.268-.068.4l-.013.053a.173.173 0 0 0 .08.221l.28.12.025.013c.021 0 .029.013.034.034.021.026 0 .065-.02.065l-.066.034c-.039.013-.067.055-.08.102l-.013.065v.013l-.068.375c-.013.052-.013.112-.013.172a.13.13 0 0 0 .08.12l.147.067c.067.04.148.086.2.133l.068.055a.23.23 0 0 0 .078.065l.028.026c.046.04.079.094.094.153l.065.3c0 .08.068.148.133.166l.107.034s.021 0 .034.013l.133.042a.72.72 0 0 1 .282.172c.08.067.159.153.226.247l.026.026c.055.068.133.102.214.08.08-.02.166-.025.252-.025h.102c.065 0 .153.018.226.065.065.041.154.067.232.101h.021a.25.25 0 0 0 .235-.026.375.375 0 0 1 .24-.08l.312.018c.067 0 .133-.013.166-.065h.013l.115-.107.034-.034a.29.29 0 0 1 .21-.1h.303c.078 0 .153-.067.185-.132a.254.254 0 0 1 .18-.136l.135-.026c.052 0 .099-.047.12-.107a.312.312 0 0 1 .099-.159l.107-.107a.37.37 0 0 0 .114-.213l-.013.005Z"/></g><defs><clipPath id="a"><path fill="#fff" d="M0 0h16v16H0z"/></clipPath></defs></svg>