<svg width="16" height="16" viewBox="0 0 16 16" fill="none" xmlns="http://www.w3.org/2000/svg">
<g clip-path="url(#clip0_86_26242)">
<path d="M13.2567 2.604C13.1717 2.6058 13.0893 2.63373 13.0207 2.684C12.9674 2.73734 12.9134 2.81467 12.9134 2.89267C12.9134 3.026 13.0707 3.20867 13.362 3.508C14.5767 4.67734 15.1874 6.11 15.1834 7.83734C15.1787 9.74867 14.5367 11.284 13.2874 12.4733C13.0247 12.7087 12.9167 12.8933 12.916 13.0513C12.916 13.1287 12.9694 13.2093 13.0227 13.2867C13.0864 13.3486 13.1695 13.3868 13.258 13.3947C13.5474 13.3947 13.9514 13.0533 14.48 12.3887C15.508 11.1287 15.9734 9.73667 15.9994 7.83934C16.0234 5.94134 15.428 4.65467 14.264 3.326C13.844 2.85134 13.4954 2.60467 13.2567 2.604ZM2.74403 2.60534C2.50536 2.60534 2.15603 2.852 1.73736 3.32734C0.572031 4.656 -0.0233021 5.94267 0.000697883 7.84067C0.0273646 9.738 0.492031 11.1293 1.5207 12.39C2.04803 13.0547 2.4527 13.3967 2.74203 13.396C2.83042 13.3883 2.91339 13.3502 2.9767 13.288C3.03003 13.2107 3.08336 13.13 3.08336 13.0527C3.08336 12.8947 2.97536 12.71 2.7127 12.4753C1.46403 11.2853 0.821365 9.75067 0.816698 7.83867C0.812698 6.11134 1.42336 4.67867 2.63803 3.50934C2.92936 3.21 3.08736 3.028 3.0867 2.894C3.0867 2.816 3.03336 2.73867 2.97936 2.68534C2.91078 2.63507 2.82838 2.60713 2.74336 2.60534H2.74403ZM7.44803 3.202C7.44803 3.202 7.8847 4.58934 5.68203 7.68667C3.57803 10.642 6.3787 12.4533 6.6367 12.6107C6.44936 12.4907 5.3027 11.6107 6.9047 8.99534C7.21536 8.482 7.62203 8.01534 8.12736 6.968C8.12736 6.968 8.57403 7.59867 8.3407 8.96667C7.99203 11.034 9.8547 10.4427 9.88336 10.4713C10.534 11.238 9.3447 12.5847 9.27203 12.6267C9.20003 12.6673 12.6694 10.54 10.2047 7.33667C10.036 7.50534 9.8167 8.298 9.36003 8.18067C8.90403 8.06467 10.7767 5.85134 7.44803 3.202ZM6.6367 12.6107C6.65203 12.6213 6.66203 12.6267 6.66203 12.6267L6.6367 12.6107Z" fill="#737373"/>
</g>
<defs>
<clipPath id="clip0_86_26242">
<rect width="16" height="16" fill="white"/>
</clipPath>
</defs>
</svg>
