<svg width="16" height="16" viewBox="0 0 16 16" fill="none" xmlns="http://www.w3.org/2000/svg">
<path d="M15.5125 8.38838C15.4437 8.38841 15.3757 8.3723 15.3128 8.34108L11.1242 6.24291C11.0384 6.19973 10.9654 6.12971 10.9143 6.04126C10.8631 5.95282 10.8359 5.84973 10.8359 5.74439C10.8359 5.63905 10.8631 5.53596 10.9143 5.44752C10.9654 5.35907 11.0384 5.28905 11.1242 5.24587L15.3128 3.15498C15.431 3.09627 15.5652 3.09233 15.6861 3.14402C15.8069 3.19571 15.9045 3.29882 15.9575 3.43081C16.01 3.56316 16.0134 3.71336 15.9671 3.84853C15.9207 3.9837 15.8284 4.09283 15.7103 4.15203L12.5191 5.74512L15.711 7.34403C15.813 7.39493 15.8964 7.48348 15.9471 7.59488C15.9978 7.70627 16.0128 7.83376 15.9895 7.95603C15.9663 8.0783 15.9063 8.18795 15.8194 8.26665C15.7326 8.34534 15.6243 8.38831 15.5125 8.38838V8.38838Z" fill="#737373"/>
<path d="M9.80398 16.0002C5.19906 16.0002 1.17317 12.5229 0.015755 7.54352C-0.0168568 7.40349 0.00159638 7.2547 0.067055 7.12988C0.132514 7.00507 0.239616 6.91446 0.3648 6.87798C0.489984 6.8415 0.622996 6.86214 0.734575 6.93536C0.846153 7.00858 0.927159 7.12839 0.959771 7.26842C1.47035 9.45717 2.61559 11.3946 4.21607 12.7772C5.81654 14.1598 7.78182 14.9094 9.80398 14.9086C9.93339 14.9086 10.0575 14.9661 10.149 15.0684C10.2405 15.1708 10.2919 15.3096 10.2919 15.4544C10.2919 15.5992 10.2405 15.738 10.149 15.8404C10.0575 15.9427 9.93339 16.0002 9.80398 16.0002V16.0002Z" fill="#737373"/>
<path d="M8.12271 11.4675C7.9933 11.4675 7.86919 11.41 7.77768 11.3076C7.68617 11.2053 7.63477 11.0664 7.63477 10.9217V0.545828C7.63477 0.401066 7.68617 0.262232 7.77768 0.159869C7.86919 0.0575067 7.9933 0 8.12271 0C8.25212 0 8.37624 0.0575067 8.46774 0.159869C8.55925 0.262232 8.61066 0.401066 8.61066 0.545828V10.9217C8.61066 11.0664 8.55925 11.2053 8.46774 11.3076C8.37624 11.41 8.25212 11.4675 8.12271 11.4675Z" fill="#737373"/>
</svg>
