<svg width="16" height="16" viewBox="0 0 16 16" fill="none" xmlns="http://www.w3.org/2000/svg">
<g clip-path="url(#clip0_86_26126)">
<path d="M9.98223 2.28781C8.67836 1.98483 7.32238 1.98483 6.0185 2.28781C5.26543 1.82594 4.6905 1.61367 4.27237 1.52407C4.0939 1.4838 3.9113 1.46482 3.72837 1.46754C3.64513 1.4698 3.56228 1.4798 3.4809 1.49741L3.47023 1.49954L3.46597 1.50167H3.46277L3.6089 2.01474L3.46277 1.50274C3.38783 1.52392 3.31844 1.56125 3.25947 1.61211C3.2005 1.66297 3.15338 1.72613 3.12143 1.79714C2.80674 2.5019 2.74678 3.29412 2.95183 4.03821C2.42078 4.68179 2.13138 5.49075 2.1337 6.32514C2.1337 7.98167 2.62223 9.09527 3.4553 9.81101C4.03877 10.3123 4.74703 10.579 5.45743 10.7315C5.34564 11.0599 5.3035 11.4079 5.3337 11.7534V12.3913C4.89957 12.4819 4.59877 12.4531 4.38437 12.3827C4.11663 12.2942 3.91077 12.1161 3.71343 11.8601C3.61028 11.7221 3.51415 11.579 3.42543 11.4313L3.36463 11.3321C3.28786 11.2044 3.20819 11.0785 3.1257 10.9545C2.92303 10.6547 2.62223 10.2793 2.13583 10.1513L1.61957 10.0158L1.34863 11.0483L1.8649 11.1838C1.95023 11.2051 2.06117 11.2851 2.24357 11.5529C2.31377 11.6586 2.38135 11.766 2.44623 11.875L2.51877 11.9923C2.61903 12.1545 2.73423 12.3337 2.86757 12.5086C3.13743 12.8606 3.50543 13.2158 4.05157 13.3961C4.4249 13.5198 4.84943 13.5497 5.3337 13.475V15.4665C5.3337 15.6079 5.38989 15.7436 5.48991 15.8436C5.58993 15.9436 5.72558 15.9998 5.86703 15.9998H10.1337C10.2751 15.9998 10.4108 15.9436 10.5108 15.8436C10.6108 15.7436 10.667 15.6079 10.667 15.4665V11.6659C10.667 11.3299 10.6521 11.0217 10.5572 10.7347C11.2644 10.5854 11.9673 10.3187 12.5476 9.81741C13.3796 9.09634 13.867 7.97207 13.867 6.30594V6.30487C13.8643 5.47731 13.5748 4.67627 13.0478 4.03821C13.2526 3.29445 13.1927 2.50265 12.8782 1.79821C12.8465 1.72711 12.7996 1.66381 12.7408 1.61277C12.6821 1.56173 12.6128 1.52417 12.538 1.50274L12.3918 2.01474C12.538 1.50274 12.5369 1.50274 12.5358 1.50274L12.5337 1.50167L12.5294 1.49954L12.5198 1.49741C12.4935 1.49056 12.4668 1.48522 12.4398 1.48141C12.384 1.47326 12.3277 1.46862 12.2713 1.46754C12.0884 1.46484 11.9058 1.48382 11.7273 1.52407C11.3102 1.61367 10.7353 1.82594 9.98223 2.28781Z" fill="#737373"/>
</g>
<defs>
<clipPath id="clip0_86_26126">
<rect width="16" height="16" fill="white"/>
</clipPath>
</defs>
</svg>
