<svg width="16" height="16" viewBox="0 0 16 16" fill="none" xmlns="http://www.w3.org/2000/svg">
<path d="M8.16234 2.6665C8.51834 2.6685 9.40901 2.67717 10.3557 2.71517L10.6917 2.72984C11.6443 2.7745 12.5963 2.85184 13.069 2.98317C13.699 3.1605 14.1937 3.6765 14.361 4.33117C14.6277 5.37117 14.661 7.39917 14.665 7.8905L14.6657 7.99184V8.10784C14.661 8.59917 14.6277 10.6278 14.361 11.6672C14.1917 12.3238 13.6963 12.8405 13.069 13.0152C12.5963 13.1465 11.6443 13.2238 10.6917 13.2685L10.3557 13.2838C9.40901 13.3212 8.51834 13.3305 8.16234 13.3318L8.00567 13.3325H7.83567C7.08234 13.3278 3.93167 13.2938 2.92901 13.0152C2.29967 12.8378 1.80434 12.3218 1.63701 11.6672C1.37034 10.6272 1.33701 8.59917 1.33301 8.10784V7.8905C1.33701 7.39917 1.37034 5.3705 1.63701 4.33117C1.80634 3.6745 2.30167 3.15784 2.92967 2.98384C3.93167 2.7045 7.08301 2.6705 7.83634 2.6665H8.16234ZM6.66567 5.6665V10.3332L10.6657 7.99984L6.66567 5.6665Z" fill="#737373"/>
</svg>
